<svg id="Layer_1" data-name="Layer 1" xmlns="http://www.w3.org/2000/svg" viewBox="0 0 64 64"><path d="M61,28a1,1,0,0,0-1-1H52a1,1,0,0,0-1,1V61H47V43a1,1,0,0,0-1-1H38a1,1,0,0,0-1,1V61H33V54a1,1,0,0,0-1-1H24a1,1,0,0,0-1,1v7H21v2H63V61H61ZM31,61H25V55h6Zm14,0H39V44h6Zm14,0H53V29h6Z" id="id_109"></path><path d="M58.282,12.076l2.661,1.586a1,1,0,0,0,1.511-.91l-.55-10.8A1,1,0,0,0,60.475,1.1L50.714,5.76a1,1,0,0,0-.081,1.761l2.578,1.536a129.977,129.977,0,0,1-14.8,19.075l-5.4-5.694a3.957,3.957,0,0,0-3.764-1.156l-2.791.609.063-2.242,2.4-.722a4,4,0,0,0,2.362-1.945l2.4-4.479a1,1,0,0,0-.154-1.159l-2.06-2.181a1,1,0,0,0-1.524.083l-3.086,4.078-1.951-1.382a4.016,4.016,0,0,0-3.038-.661,4.02,4.02,0,1,0-3.5,1.494l-.1.046a5.992,5.992,0,0,0-2.756,2.608l-3.69,6.9a1,1,0,0,0,.411,1.354l2.79,1.49a1,1,0,0,0,1.332-.373l2.291-3.872.922,5.9a2.972,2.972,0,0,0,2.064,2.188l1.8,4.878-.154,5.456a1,1,0,0,0,.773,1l.976.227A129.346,129.346,0,0,1,8.364,52L1.5,55.952a1,1,0,0,0-.5.867V61.3a1,1,0,0,0,1.5.868l9.309-5.323A132.316,132.316,0,0,0,58.282,12.076ZM17.288,10.189a2,2,0,0,1,1.45-3.375H18.8a2,2,0,1,1-1.507,3.375ZM22.777,27.1a.92.92,0,0,1-.361.037.947.947,0,0,1-.888-.685l-1.34-8.591a1,1,0,0,0-1.849-.354l-3.222,5.446-1.063-.568,3.217-6.016A3.981,3.981,0,0,1,19.1,14.636L21.751,13.4a2.015,2.015,0,0,1,2,.179l2.74,1.941a1,1,0,0,0,1.375-.213L30.825,11.4l.753.8-2.062,3.849a1.991,1.991,0,0,1-1.175.971l-3.09.93a1,1,0,0,0-.71.929l-.121,4.239a1,1,0,0,0,1.213,1.006l4.054-.884a1.96,1.96,0,0,1,1.868.576l5.479,5.772c-.365.378-.726.76-1.095,1.133l-5.662-5.351a1,1,0,0,0-.978-.23Zm6.871,4.979L28,27.616l1.33-.4,5.189,4.9q-2.6,2.555-5.346,4.962l.535-4.535A.989.989,0,0,0,29.648,32.083Zm-5.929-3.175,2.358-.712,1.611,4.355-.756,6.419-1.639-.379.137-4.832a.993.993,0,0,0-.061-.374Zm-12.907,26.2L3,59.576V57.4l6.362-3.661A132.384,132.384,0,0,0,55.452,9.251a1,1,0,0,0-.337-1.389l-1.853-1.1,6.721-3.21.378,7.438-1.9-1.133a1,1,0,0,0-1.364.337A130.288,130.288,0,0,1,10.812,55.108Z" id="id_110"></path><rect x="4.226" y="30.162" width="8" height="2.001" transform="translate(-19.167 14.181) rotate(-43.418)" id="id_111"></rect><rect x="11.393" y="32.113" width="7" height="2.001" transform="translate(-18.684 19.297) rotate(-43.418)" id="id_112"></rect></svg>